<svg xmlns="http://www.w3.org/2000/svg" xml:space="preserve" width="381.362" height="93.867" style="shape-rendering:geometricPrecision;text-rendering:geometricPrecision;image-rendering:optimizeQuality;fill-rule:evenodd;clip-rule:evenodd" viewBox="0 0 10073.59 2479.46"><defs><style>.fil0{fill:#3f3aca}.fil1{fill:#5d5bf2}.fil2,.fil4{fill:#4334db;fill-rule:nonzero}.fil2{fill:#5d5bf2}</style></defs><g id="Layer_x0020_1"><g id="_39743939200"><path d="M2040.72 1193.99c36.49-38.38 50.37-66.02 87.11-101.38 21.87-21.05 77.13-75.56 86.61-100.82l-51.49-58.33c33.29-65.79 353.53-399.58 606.27-282.42 289.76 134.31 380.57 586.57 79.59 807.48-70.32 51.61-139.91 65.55-243.3 73.37-389.91 29.51-780.76 53.67-1170.83 82.38-86.3 6.35-203.69 4.82-273.24 38.28-164.95 79.3-176.84 310.68-67.43 415.5 68.29 65.41 134.15 65.93 250.34 69.2-32.17 71.37-76.6 120.54-27.14 226.15 117.21 250.22 529.43 59.12 336.59-224.81l806.15-.31c-185.29 282.29 219.44 474.27 338.62 226.24 42.62-88.68 14.35-163.14-27.04-226.23 95.43-2.91 232.6 25.86 250.88-78.19 10.16-57.95-19.14-96.3-54.24-110.88-38.32-15.92-110.33-8.26-155.27-8.24-219.76.07-439.52-.03-659.28 0l-822.28.45c-55.4.65-106.52 5.65-110.43-52.2-5.91-87.61 112.48-69.76 251.34-79.56 203.07-14.34 406.75-29.16 610.34-42.14 197.65-12.61 423.46-20.19 617.41-44.77 89.77-11.39 171.44-43.98 237.73-85.93 234.15-148.17 318.65-383.09 307.18-678.66-27.08-28.81-4.6-117.99-187.56-314.08-61.44-65.85-234.97-140.72-355.25-149.86-172.77-13.14-340.42 82.06-457.36 174.44-30.13 23.8-37.62 37.7-64.25 61.86-23.54 21.36-35.3 29.65-66.49 59.55-42.43 40.69-11.17-.59-57.21 61.25-19.04 25.58-40.96 39.44-62.96 62.96l-116.45 135.34c-80.16 69.4-126.03 133.74-195.54 182.91-162.48 114.92-366.86 208.83-550.12 78.93-76.61-54.31-139.3-182.34-166.69-273.12-16.14-53.48-1.92-44.91 4.77-49.39C902 820.71 857.37 612.45 813.87 422.12 752.59 154.01 697.64 136.27 433.19 75.55 335.55 53.13 235.92 30.16 139.28 5.41 1.28-29.95-36.45 118.7 36.36 176.17c33.53 26.45 228.36 63.35 286.81 76.48 50.19 11.26 97.47 22.92 150.03 35.76 62 15.13 91.22 12.74 115.23 68.92C695.26 607.22 685.3 1177.31 997 1401.78c158.68 114.27 370.81 133.01 567.56 47.03 161.71-70.68 213.82-125.07 321.11-227.56 26.08-24.91 74.25-76.28 98.34-87.44l56.72 60.2z" class="fil0"/><path d="M1966.57 727.03c11.5 15.77-11.73 10.67 11.58 13.98-43.46 19.11-61.14 56.56-95.59 91.89-16.66 17.1-74.56 86.86-93.5 95.13-19.03 43.16-121.94 133.45-164.88 172.29-38.33 34.66-150.11 107.49-220.47 128.06-232.5 67.95-355.65-116.01-433.92-239.43-6.69 4.48-20.92-4.09-4.77 49.39 27.39 90.78 90.08 218.81 166.69 273.12 183.26 129.9 387.64 35.99 550.12-78.93 69.51-49.17 115.38-113.51 195.54-182.91l116.45-135.34c21.99-23.51 43.92-37.38 62.96-62.96 46.03-61.84 14.78-20.56 57.21-61.25 31.19-29.9 42.95-38.19 66.49-59.55 26.64-24.16 34.12-38.06 64.25-61.86 116.95-92.38 284.59-187.58 457.36-174.44 120.28 9.14 293.81 84.01 355.25 149.86 182.96 196.1 160.48 285.27 187.56 314.08-36.21-305.46-230.83-550.31-525.97-589.39-169.37-22.42-322.3 31.83-441.17 103.13-101.49 60.88-185.67 141.27-264.9 224.28-19.1 20.02-17.75 25.17-46.29 30.85z" class="fil1"/><path d="M1729.86 861.31c77.15-47.16 121.44-135.16 187.5-186.28-67.71-103.86-289.68-248.03-439.17-289.69-207.85-57.92-448.29 15.35-556.28 132.97 2.99 60.67 65.75 319.27 90.94 356.26 17.58-29.34 27.77-73.27 44.79-104.12 19.67-35.63 36.95-53.82 67.51-80.2 133.33-115.09 305.91-62.06 439.68 32.01l165.04 139.05zM2040.72 1193.99c26.44 46.84 154.78 147.17 220.76 187.57 134.7 82.49 147.68 87.06 333.11 74.25 137.7-9.5 221.84-49.2 283.65-130.72 57.58-75.94 105.13-209.99 66.46-330.73-50.22 109.06-35.4 111.3-117 183.68-132.79 117.81-315.77 53.3-448.31-40.72-76.73-54.44-103.26-92.46-164.96-145.52-9.47 25.27-64.73 79.78-86.61 100.82-36.74 35.36-50.62 63.01-87.11 101.38z" class="fil1"/><path d="M1729.86 861.31c11.22 21.8 41.53 43.12 59.2 66.72 18.94-8.28 76.83-78.03 93.5-95.13 34.45-35.33 52.13-72.78 95.59-91.89-23.31-3.3-.08 1.8-11.58-13.98l-49.21-52c-66.06 51.13-110.35 139.12-187.5 186.28z" class="fil0"/><path d="M9650.63 1523.04c41.73 0 78.39-10.15 109.97-30.46 31.58-20.3 56.12-50.47 73.6-90.51 17.48-40.04 26.22-89.95 26.22-149.73 0-90.23-19.17-157.62-57.51-202.18-38.36-44.56-89.11-66.83-152.27-66.83-41.73 0-78.39 9.87-109.97 29.61-31.59 19.74-56.12 49.63-73.6 89.66-17.48 40.04-26.23 89.95-26.23 149.73 0 89.1 19.18 156.5 57.52 202.18 38.35 45.68 89.1 68.53 152.27 68.53zm0 160.72c-85.73 0-160.17-17.48-223.33-52.45-63.16-34.96-112.22-84.87-147.19-149.72-34.96-64.86-52.45-141.28-52.45-229.25 0-66.54 9.87-126.04 29.61-178.49 19.74-52.45 48.22-97.57 85.44-135.36 37.22-37.78 81.77-66.54 133.66-86.28 51.88-19.75 109.97-29.61 174.26-29.61 85.72 0 160.16 17.48 223.32 52.44 63.17 34.97 112.22 84.6 147.2 148.88 34.96 64.29 52.44 140.43 52.44 228.4 0 66.55-9.87 126.32-29.61 179.33-19.74 53.01-48.22 98.42-85.44 136.19-37.22 37.79-81.76 66.55-133.65 86.29-51.88 19.74-109.98 29.61-174.26 29.61zM7962 1680.38c-33.83 0-59.78-9.3-77.83-27.91-18.04-18.61-27.07-45.4-27.07-80.37V932.58c0-34.96 9.03-61.47 27.07-79.52 18.05-18.04 43.43-27.07 76.13-27.07 32.72 0 58.09 9.03 76.13 27.07 18.05 18.05 27.08 44.56 27.08 79.52v123.51l-18.61-50.76c22.55-56.4 57.51-100.94 104.9-133.66 47.37-32.71 103.76-49.06 169.18-49.06 66.55 0 121.25 15.79 164.11 47.37 42.86 31.58 72.75 80.08 89.67 145.5h-23.69c22.56-59.78 59.78-106.86 111.67-141.27 51.88-34.4 111.67-51.6 179.33-51.6 63.17 0 115.33 12.41 156.5 37.22 41.16 24.82 71.9 62.32 92.21 112.51 20.3 50.19 30.45 113.63 30.45 190.34v409.42c0 34.96-9.3 61.76-27.91 80.37-18.61 18.61-44.84 27.91-78.67 27.91-33.84 0-59.78-9.3-77.83-27.91-18.04-18.61-27.07-45.4-27.07-80.37v-400.97c0-63.17-10.43-109.41-31.3-138.73-20.87-29.33-56.12-44-105.75-44-55.27 0-98.69 19.46-130.27 58.37-31.58 38.92-47.37 92.78-47.37 161.57v363.75c0 34.96-9.02 61.76-27.07 80.37-18.05 18.61-43.99 27.91-77.83 27.91-33.83 0-60.05-9.3-78.67-27.91-18.61-18.61-27.91-45.4-27.91-80.37v-400.97c0-63.17-10.43-109.41-31.3-138.73-20.87-29.33-55.55-44-104.05-44-55.27 0-98.7 19.46-130.27 58.37-31.58 38.92-47.37 92.78-47.37 161.57v363.75c0 72.18-35.53 108.28-106.58 108.28zM7395.06 1683.77c-48.5 0-99.82-5.08-153.96-15.22-54.14-10.15-102.64-27.63-145.5-52.45-18.05-11.28-30.74-24.53-38.07-39.75-7.33-15.22-10.15-30.46-8.46-45.68 1.69-15.22 7.33-28.48 16.91-39.75 9.59-11.28 21.99-18.61 37.23-21.99 15.22-3.38 31.86-.57 49.91 8.46 45.12 21.43 87.42 36.38 126.89 44.84s78.39 12.69 116.74 12.69c54.14 0 94.46-9.3 120.97-27.91 26.51-18.62 39.75-43.15 39.75-73.6 0-25.95-8.75-45.96-26.23-60.06-17.48-14.1-43.71-24.53-78.67-31.3l-169.18-32.15c-69.93-13.54-123.23-39.2-159.89-76.98-36.66-37.78-54.98-86.57-54.98-146.34 0-54.14 14.94-100.95 44.83-140.43 29.89-39.47 71.34-69.93 124.35-91.36 53.01-21.43 113.92-32.15 182.72-32.15 49.63 0 96.16 5.36 139.58 16.07 43.43 10.71 85.44 27.35 126.04 49.91 16.92 9.03 28.48 20.87 34.68 35.53 6.21 14.67 7.62 29.61 4.23 44.84-3.38 15.22-10.15 28.76-20.31 40.6-10.14 11.84-22.83 19.18-38.06 21.99-15.23 2.82-32.44-.28-51.6-9.3-34.96-18.05-68.52-31.02-100.66-38.92-32.15-7.9-62.89-11.84-92.21-11.84-55.27 0-96.15 9.58-122.66 28.76-26.51 19.18-39.76 44.55-39.76 76.13 0 23.68 7.9 43.42 23.69 59.21 15.78 15.79 40.03 26.51 72.75 32.15l169.18 32.15c73.32 13.53 128.87 38.35 166.64 74.44 37.79 36.09 56.69 84.59 56.69 145.5 0 82.33-32.15 146.91-96.44 193.72-64.29 46.8-150.01 70.21-257.17 70.21z" class="fil2"/><path d="M6829.83 670.34c-39.47 0-70.2-9.86-92.21-29.61-21.99-19.74-32.99-47.08-32.99-82.04 0-36.1 10.99-63.73 32.99-82.9 22-19.18 52.73-28.76 92.21-28.76 40.61 0 71.62 9.58 93.06 28.76 21.43 19.17 32.15 46.8 32.15 82.9 0 34.96-10.71 62.31-32.15 82.04-21.43 19.75-52.44 29.61-93.06 29.61z" style="fill:#f59e0c;fill-rule:nonzero"/><path d="M6829.83 1678.69c-33.83 0-59.77-10.14-77.82-30.45-18.05-20.31-27.08-48.5-27.08-84.59V942.74c0-37.22 9.03-65.7 27.08-85.44 18.05-19.74 43.99-29.61 77.82-29.61 33.84 0 60.06 9.87 78.68 29.61 18.61 19.74 27.91 48.22 27.91 85.44v620.91c0 36.09-9.03 64.28-27.08 84.59-18.04 20.31-44.55 30.45-79.52 30.45z" class="fil2"/><path d="M6473.44 1683.77c-73.32 0-134.5-12.41-183.57-37.22-49.07-24.82-85.44-61.19-109.12-109.13-23.69-47.94-35.53-107.43-35.53-178.5V998.56c-104.23 11.42-172.4-17.68-269.17-8.88-68.8 6.76-125.76 46.94-160.72 82.47-34.96 35.53-52.44 85.44-52.44 149.73v350.21c0 34.96-9.03 61.76-27.08 80.37-18.04 18.61-44.55 27.91-79.52 27.91-34.96 0-61.75-9.3-80.36-27.91s-27.92-45.4-27.92-80.37V932.57c0-34.96 9.03-61.47 27.08-79.52 18.05-18.04 43.43-27.07 76.13-27.07 32.71 0 58.08 9.03 76.13 27.07 18.04 18.05 27.07 44.56 27.07 79.52v106.59h-16.91c15.78-67.68 46.8-119 93.05-153.97 46.24-34.96 133.13-57.98 184.42-62.6 51.28-4.61 156.22 25.8 230.25 16.92V685.54c0-34.96 9.3-61.47 27.91-79.52 18.61-18.04 44.84-27.07 78.67-27.07s59.78 9.03 77.83 27.07c18.04 18.05 27.07 44.56 27.07 79.52v153.97h179.33c27.08 0 47.94 6.76 62.6 20.3 14.67 13.54 21.99 33.28 21.99 59.22 0 24.81-7.33 44.27-21.99 58.36-14.66 14.1-35.52 21.15-62.6 21.15h-179.33v348.52c0 54.14 11.84 94.74 35.53 121.82 23.68 27.07 62.03 40.6 115.04 40.6 19.18 0 36.1-1.7 50.76-5.08 14.67-3.38 27.63-5.63 38.92-6.76 13.54-1.13 24.81 3.09 33.83 12.69 9.03 9.58 13.54 29.04 13.54 58.36 0 22.56-3.66 42.58-11 60.06-7.33 17.48-20.58 29.61-39.75 36.38-14.67 4.51-33.83 8.74-57.52 12.69-23.68 3.94-44.55 5.92-62.6 5.92zM4925.85 1683.77c-59.77 0-113.07-11.56-159.88-34.68-46.81-23.12-83.46-54.42-109.97-93.9-26.51-39.47-39.76-84.02-39.76-133.65 0-60.91 15.79-109.13 47.37-144.66 31.59-35.52 82.9-61.19 153.97-76.97 71.05-15.79 166.37-23.69 285.92-23.69h84.59v121.82h-82.9c-69.92 0-125.75 3.38-167.48 10.15-41.74 6.76-71.34 18.32-88.82 34.67-17.48 16.36-26.23 39.2-26.23 68.53 0 37.22 12.97 67.67 38.92 91.36 25.94 23.69 62.03 35.53 108.27 35.53 37.23 0 70.21-8.75 98.98-26.23 28.76-17.48 51.6-41.45 68.52-71.9 16.92-30.46 25.38-65.42 25.38-104.9v-194.57c0-56.39-12.4-97-37.22-121.81-24.81-24.81-66.54-37.22-125.19-37.22-32.72 0-67.96 3.94-105.75 11.84-37.79 7.9-77.54 21.42-119.27 40.6-21.43 10.15-40.32 12.97-56.68 8.47-16.35-4.51-29.04-13.82-38.07-27.92-9.03-14.1-13.54-29.6-13.54-46.52s4.51-33.55 13.54-49.91c9.03-16.35 24.25-28.48 45.67-36.38 51.88-21.42 101.8-36.65 149.73-45.67 47.94-9.03 91.64-13.54 131.12-13.54 81.21 0 148.04 12.41 200.48 37.22 52.45 24.82 91.65 62.32 117.59 112.51 25.95 50.19 38.92 114.76 38.92 193.72v406.04c0 34.96-8.47 61.76-25.38 80.37-16.92 18.61-41.17 27.91-72.75 27.91-31.59 0-56.12-9.3-73.6-27.91-17.48-18.61-26.23-45.4-26.23-80.37v-81.21h13.54c-7.9 39.47-23.4 73.59-46.52 102.35-23.12 28.76-52.16 51.04-87.14 66.83-34.96 15.79-75.01 23.69-120.12 23.69z" class="fil4"/><path d="M4267.55 1683.77c-124.08 0-230.38-25.1-318.92-75.3-88.53-50.19-156.49-121.24-203.86-213.17-47.37-91.93-71.06-200.49-71.06-325.68 0-93.62 13.54-177.93 40.61-252.93 27.07-75.01 65.98-139.3 116.74-192.87 50.76-53.58 113.07-94.74 186.95-123.51 73.87-28.76 157.06-43.14 249.55-43.14 62.03 0 122.94 7.89 182.72 23.68s112.22 38.35 157.34 67.68c23.69 14.66 39.47 32.43 47.37 53.29 7.9 20.87 9.58 41.17 5.07 60.91-4.5 19.74-13.81 36.37-27.91 49.91-14.1 13.53-31.58 21.15-52.44 22.83-20.87 1.7-43.71-5.35-68.52-21.15-34.97-22.55-72.75-38.91-113.36-49.06-40.6-10.15-81.76-15.22-123.51-15.22-80.08 0-147.75 16.35-203.01 49.06-55.27 32.71-97 80.08-125.2 142.12-28.19 62.04-42.29 138.17-42.29 228.4 0 89.1 14.1 165.24 42.29 228.4 28.2 63.16 69.93 111.1 125.2 143.8 55.27 32.72 122.94 49.07 203.01 49.07 42.87 0 85.16-5.36 126.89-16.07 191.73-49.23 170.39-119.51 274.79-210.45 13.54 12.41-17.05 190.15-12.55 208.76 4.51 18.61 3.38 37.79-3.38 57.52-6.76 19.74-20.3 36.94-40.6 51.6-45.12 32.71-98.97 57.8-161.56 75.29-62.61 17.48-126.05 26.23-190.34 26.23z" class="fil4"/></g></g></svg>